<svg width="48" height="48" viewBox="0 0 48 48" fill="none" xmlns="http://www.w3.org/2000/svg">
<path d="M40.2685 21.1818L41.7004 24.2244L43.2089 21.1818H46.7117L44.0782 26.0909L46.8396 31H43.3623L41.7004 27.8807L40.0896 31H36.5612L39.3481 26.0909L36.7401 21.1818H40.2685Z" fill="#D2042D"/>
<path d="M29.7536 31.3579C28.5647 31.3537 27.5377 31.0788 26.6727 30.5334C25.8076 29.9879 25.1407 29.2017 24.6719 28.1747C24.2032 27.1477 23.971 25.9162 23.9752 24.4801C23.9795 23.0398 24.2139 21.8167 24.6783 20.8111C25.1471 19.8054 25.8119 19.0405 26.6727 18.5163C27.5377 17.9922 28.5647 17.7301 29.7536 17.7301C30.9425 17.7301 31.9695 17.9943 32.8346 18.5227C33.6996 19.0469 34.3666 19.8118 34.8353 20.8175C35.3041 21.8231 35.5363 23.044 35.532 24.4801C35.532 25.9247 35.2977 27.1605 34.8289 28.1875C34.3602 29.2145 33.6933 30.0007 32.8282 30.5462C31.9674 31.0873 30.9425 31.3579 29.7536 31.3579ZM29.7536 28.4687C30.3673 28.4687 30.8701 28.1491 31.2621 27.5099C31.6585 26.8665 31.8545 25.8565 31.8502 24.4801C31.8502 23.581 31.7607 22.8459 31.5818 22.2748C31.4028 21.7038 31.1556 21.2819 30.8403 21.0092C30.5249 20.7322 30.1627 20.5937 29.7536 20.5937C29.14 20.5937 28.6393 20.9048 28.2515 21.527C27.8637 22.1491 27.6656 23.1335 27.657 24.4801C27.6528 25.3963 27.7401 26.1506 27.9191 26.7429C28.0981 27.331 28.3452 27.7656 28.6606 28.0469C28.9802 28.3281 29.3445 28.4687 29.7536 28.4687Z" fill="#121212"/>
<path d="M16.6052 31.3579C15.4163 31.3537 14.3893 31.0788 13.5242 30.5334C12.6592 29.9879 11.9923 29.2017 11.5235 28.1747C11.0548 27.1477 10.8225 25.9162 10.8268 24.4801C10.831 23.0398 11.0654 21.8167 11.5299 20.8111C11.9987 19.8054 12.6634 19.0405 13.5242 18.5163C14.3893 17.9922 15.4163 17.7301 16.6052 17.7301C17.7941 17.7301 18.8211 17.9943 19.6862 18.5227C20.5512 19.0469 21.2181 19.8118 21.6869 20.8175C22.1556 21.8231 22.3879 23.044 22.3836 24.4801C22.3836 25.9247 22.1492 27.1605 21.6805 28.1875C21.2117 29.2145 20.5448 30.0007 19.6798 30.5462C18.819 31.0873 17.7941 31.3579 16.6052 31.3579ZM16.6052 28.4687C17.2188 28.4687 17.7217 28.1491 18.1137 27.5099C18.51 26.8665 18.706 25.8565 18.7018 24.4801C18.7018 23.581 18.6123 22.8459 18.4333 22.2748C18.2543 21.7038 18.0072 21.2819 17.6918 21.0092C17.3765 20.7322 17.0143 20.5937 16.6052 20.5937C15.9916 20.5937 15.4908 20.9048 15.1031 21.527C14.7153 22.1491 14.5171 23.1335 14.5086 24.4801C14.5043 25.3963 14.5917 26.1506 14.7707 26.7429C14.9496 27.331 15.1968 27.7656 15.5121 28.0469C15.8318 28.3281 16.1961 28.4687 16.6052 28.4687Z" fill="#121212"/>
<path d="M8.21563 17.9091V31H4.66165V21.1818H4.58495L1.72131 22.8949V19.8779L4.9429 17.9091H8.21563Z" fill="#121212"/>
</svg>
